<?xml version="1.0" encoding="utf-8"?>
<!-- Generator: Adobe Illustrator 16.0.4, SVG Export Plug-In . SVG Version: 6.00 Build 0)  -->
<!DOCTYPE svg PUBLIC "-//W3C//DTD SVG 1.1//EN" "http://www.w3.org/Graphics/SVG/1.1/DTD/svg11.dtd">
<svg version="1.1" id="Layer_1" xmlns="http://www.w3.org/2000/svg" xmlns:xlink="http://www.w3.org/1999/xlink" x="0px" y="0px"
	 width="315px" height="110px" viewBox="0 0 315 110" enable-background="new 0 0 315 110" xml:space="preserve">
<g>
	<path fill="#F9F9F9" d="M270.539,0.715c1.909,0.488,3.892,0.119,5.823,0.447c3.001,0.394,5.671,1.988,8.622,2.574
		c1.42,0.69,2.92,1.2,4.344,1.89c1.384,0.556,2.666,1.43,4.174,1.624c0.761,0.747,1.436,1.677,2.518,1.964
		c2.715,0.823,4.552,3.095,6.665,4.842c1.516,1.243,2.102,3.239,3.63,4.471c0.767,0.615,0.748,1.671,1.241,2.458
		c1.955,2.828,2.35,6.36,3.937,9.372c0.898,2.805,1.294,5.728,1.397,8.666c0.3,4.786,1.363,9.665,0.297,14.41
		c0.113,0.899-0.049,1.791-0.313,2.648c-0.03,0.805-0.055,1.633-0.427,2.367c-0.292,1.085-0.157,2.362-0.959,3.243
		c-0.259-0.161-0.779-0.491-1.042-0.657c0.886-2.917,1.279-5.996,1.301-9.041c0.156-3.097,0.142-6.193-0.271-9.268
		c-0.551-3.695-0.804-7.45-1.81-11.061c-1.308-3.968-3.53-7.544-5.328-11.284c-0.725-0.945-1.648-1.722-2.304-2.719
		c-1.218-1.771-3.112-2.899-4.506-4.511c-0.854-1.158-2.481-0.896-3.442-1.886c-1.315-1.19-2.83-2.104-4.329-3.04
		c-3.271-1.682-6.844-2.683-10.306-3.891c-2.214-0.832-4.591-1.127-6.936-0.934c-3.604-0.662-7.363-1.031-10.939-0.04
		c-2.465,0.744-5.095,0.917-7.396,2.145c-2.137,0.953-4.4,1.811-6.2,3.346c-3.026,1.353-4.966,4.178-7.643,6.026
		c-0.777,0.556-1.078,1.51-1.64,2.241c-2.368,2.559-3.625,5.885-5.312,8.886c-1.084,3.073-2.425,6.052-3.615,9.075
		c-1.296,1.879-2.469,3.846-3.338,5.96c-1.101,3.309-3.526,5.996-4.462,9.387c-0.923,0.454-1.433,1.364-2.087,2.105
		c-2.152,1.799-3.518,4.681-6.321,5.58c-0.2,0.258-0.396,0.516-0.589,0.779c0.079-0.986,0.381-2.011-0.152-2.92
		c0.13,0.182,0.396,0.543,0.527,0.726c0.545-0.521,1.101-1.027,1.631-1.562c0.264-1.3,1.677-1.772,2.321-2.831
		c0.657-1.073,1.575-1.942,2.316-2.952c0.752-1.162,1.277-2.453,1.996-3.634c1.696-1.683,2.64-3.924,3.417-6.141
		c1.424-3.878,3.817-7.351,4.883-11.365c0.644-2.204,2.205-4,2.802-6.237c1.109-1.995,1.878-4.232,3.5-5.891
		c0.933-1.171,1.855-2.376,3.089-3.248c1.791-1.271,3.419-2.749,4.98-4.286c2.053-1.07,3.75-2.706,5.849-3.7
		c1.143-0.544,2.272-1.134,3.436-1.636c1.638-0.449,3.301-0.804,4.953-1.191c1.7-0.178,3.201-1.153,4.923-1.234
		C265.81,0.702,268.183,0.196,270.539,0.715z"/>
	<path fill="#F9F9F9" d="M122.003,17.9c0.398,0.172,0.75,0.417,1.051,0.732c0.647-0.222,1.33-0.179,2.007-0.127
		c1.905,1.226,4.068,2.047,5.779,3.57c3.615,2.222,6.914,4.939,10.513,7.187c2.095,1.819,4.534,3.167,6.755,4.809
		c1.507,1.811,3.598,2.958,5.386,4.461c0.691,0.655,1.389,1.307,2.087,1.963c1.838,1.538,3.752,3.007,5.34,4.818
		c0.81,0.503,1.598,1.046,2.37,1.615c0.461,0.541,0.968,1.014,1.539,1.445c0.166-0.32-0.024-1.296,0.588-0.865
		c0.562,0.298,0.137,0.739-0.213,0.975c1.759,1.183,3.1,2.866,4.824,4.094c1.146,1.535,0.755,3.646,1.904,5.188
		c-0.244-0.134-0.732-0.414-0.979-0.55c-0.407,1.35-1.161,2.559-1.911,3.744c-0.243,0.62-0.925,0.801-1.531,0.78
		c-0.504,0.028-1.008,0.027-1.51,0.037c-1.011-0.997-2.147-1.847-3.26-2.72c0.404-0.574,0.814-1.142,1.24-1.695
		c0.251-1.919-1.799-2.775-2.552-4.294c-0.96-0.266-1.959-0.437-2.951-0.25c-1.471,0.679-2.827,1.979-3.066,3.645
		c-0.455,1.833,0.573,3.77,2.003,4.863c1.328-0.386,2.774-0.024,3.76,0.952c0.898,0.907,2.005,1.542,3.175,2.032
		c-0.017,1.725-1.622,2.648-2.42,4.002c-0.578,1.037-1.687,1.593-2.381,2.541c0.082,0.281,0.143,0.574,0.151,0.876l-0.253-1.043
		c-0.403,0.569-0.808,1.142-1.218,1.707c-0.222-0.067-0.664-0.199-0.885-0.264c-0.061-0.185-0.174-0.556-0.23-0.74
		c-0.577-0.128-1.144-0.253-1.721-0.349c-0.731-0.762-1.494-1.493-2.113-2.345c-2.019-1.5-3.409-3.613-5.009-5.512
		c-1.344-2.644-2.167-5.526-2.705-8.429c0.142-1.16,0.183-2.385,0.722-3.448c0.967-2.151,1.201-4.756,3.023-6.425
		c1.16-0.979,2.062-2.261,3.399-3.025c-0.591-1.9-2.806-2.188-3.914-3.647c-1.403-1.258-2.773-2.612-4.44-3.524
		c-2.086-2.166-4.935-3.382-7.104-5.454c-1.947-1.42-4.002-2.686-6.143-3.786c-1.852-1.527-3.751-3.007-5.802-4.253
		c-0.366-0.344-0.736-0.689-1.098-1.037c-0.119,0.184-0.354,0.549-0.469,0.732c0.613-1.091-0.647-1.751-1.116-2.593
		C122.47,18.195,122.158,17.999,122.003,17.9z"/>
	<path fill="#F9F9F9" d="M105.079,16.804c3.681,0.251,7.365,0.598,11.04,0.953c0.213,0.463,0.429,0.931,0.654,1.393
		c-1.452-0.148-2.912-0.246-4.374-0.156l-0.096-0.271c-0.084-0.234-0.253-0.704-0.338-0.938c-1.378-0.199-2.802-0.444-4.172-0.06
		C106.849,17.535,105.939,17.225,105.079,16.804z"/>
	<path fill="#F9F9F9" d="M116.119,17.757c1.288,0.121,2.572,0.276,3.855,0.431c0.224,0.578,0.012,1.092-0.399,1.523
		c-0.923-0.246-1.869-0.385-2.802-0.561C116.548,18.688,116.332,18.221,116.119,17.757z"/>
	<path fill="#F9F9F9" d="M103.744,16.685c0.444,0.039,0.889,0.073,1.335,0.119c0.86,0.421,1.77,0.731,2.713,0.921
		c1.37-0.384,2.794-0.139,4.172,0.06c0.085,0.234,0.254,0.704,0.338,0.938c-4-0.15-8.011-0.25-11.965-0.894l-0.016,0.365
		c-1.828-0.594-3.763-0.507-5.658-0.623c-0.534,0.07-1.077,0.104-1.612,0.131c-0.225,0.016-0.671,0.048-0.896,0.063l-0.067,0.679
		c-0.005-0.189-0.02-0.566-0.024-0.754c-1.525,0.206-3.061,0.235-4.593,0.319c-0.047,0.056-0.141,0.167-0.188,0.223
		c-0.671-0.089-1.346-0.098-2.016-0.026c-1.952,0.014-3.901,0.036-5.852-0.067c-2.784,0.043-5.568,0.167-8.319,0.613
		c-3.638-0.001-7.33-0.344-10.916,0.377c-1.737-0.188-3.491-0.22-5.223,0.047c-1.807,0.151-3.619-0.109-5.415,0.157
		c-2.373,0.284-4.798-0.038-7.143,0.475c-1.31-0.189-2.621-0.012-3.923,0.112c-0.503,0.078-1.002,0.154-1.502,0.236
		c-0.668-0.023-1.34-0.03-2.009-0.029c-1.955,0.631-4.023,0.164-6.023,0.522c-2.457,0.382-4.926,0.749-7.335,1.379
		c-2.284,0.151-4.572,0.169-6.814,0.701c0.237-0.439,0.482-0.882,0.719-1.322c4.518-1.712,9.393-2.039,14.126-2.807
		c4.376,0.112,8.692-0.659,13.04-1.039c6.522-0.511,13.054-0.833,19.593-0.956c-0.096,0.44-0.189,0.884-0.283,1.328
		c0.461-0.081,0.92-0.149,1.387-0.217l-0.34,0.253c0.47-0.06,0.939-0.119,1.409-0.179c-0.108-0.097-0.323-0.292-0.43-0.392
		c-0.282-0.054-1.194,0.014-0.748-0.491c1.507-0.556,3.177-0.199,4.753-0.378c2.307,0.184,4.619-0.17,6.926,0.072
		c1.881,0.164,3.754-0.267,5.632-0.096c0.177-0.281,0.36-0.563,0.54-0.844c-0.08,0.239-0.244,0.716-0.328,0.955
		c4.445,0.212,8.89-0.112,13.33-0.342c-0.11,0.145-0.326,0.435-0.436,0.58c0.264,0.037,0.789,0.114,1.049,0.15
		c-0.071-0.163-0.221-0.492-0.292-0.654c0.376-0.01,1.129-0.03,1.506-0.041c-0.041,0.295-0.127,0.889-0.168,1.185
		c0.171-0.418,0.332-0.841,0.485-1.269c0.435-0.007,1.304-0.022,1.738-0.028c0.366,0.492,0.504,1.379,1.46,0.934l-1.185-0.638
		c0.88-0.366,1.789,0.068,2.678,0.165c-0.017,0.288-0.045,0.858-0.061,1.145c0.097-0.276,0.287-0.828,0.379-1.104
		c0.263,0.021,0.786,0.055,1.045,0.071c0.324-0.057,0.969-0.17,1.294-0.23c-0.045,0.295-0.141,0.875-0.185,1.166
		C103.503,17.453,103.665,16.944,103.744,16.685z"/>
	<path fill="#F9F9F9" d="M62.313,16.41c1.903-0.165,3.802,0.037,5.704,0.122c-1.576,0.179-3.246-0.178-4.753,0.378
		c-0.446,0.505,0.466,0.437,0.748,0.491c0.107,0.101,0.322,0.295,0.43,0.392c-0.469,0.06-0.939,0.12-1.409,0.179l0.34-0.253
		c-0.467,0.068-0.926,0.137-1.387,0.217c0.094-0.444,0.187-0.888,0.283-1.328L62.313,16.41z"/>
	<path fill="#F9F9F9" d="M10.587,27.457c1.488-0.129,1.536,1.46,1.988,2.485c1.028,2.241,0.95,4.802,0.687,7.199
		c-0.728,3.545,0.143,7.379-1.503,10.72c-0.005,0.29-0.015,0.867-0.019,1.152c-0.829,2.503-0.171,5.165-0.778,7.707
		c-0.211,1.574-1.067,3.014-1.03,4.621c0.166,2.156-0.37,4.292-0.333,6.447c0.044,0.804-0.09,1.602-0.359,2.357
		c0.315,2.092-0.199,4.183,0.021,6.28c0.065,1.389-0.04,2.787,0.155,4.166c0.22,1.622-0.402,3.2-0.492,4.801
		c0.189,2.489,0.162,4.989,0.394,7.48c-0.059,2.246,0.282,4.545-0.244,6.754c0.132,1.471-0.012,2.98-0.871,4.235
		c0.864-0.278,1.762-0.524,2.678-0.369c1.495,0.184,2.914-0.502,4.408-0.424c0.172-0.085,0.521-0.26,0.697-0.349
		c3.866,0.555,7.768,0.793,11.663,0.52c2.211,0.12,4.41,0.466,6.626,0.543c4.281-0.354,8.569,0.204,12.861,0.054
		c1.676-0.114,3.312,0.563,4.988,0.257c1.556-0.312,3.243,0.426,4.693-0.392c1.978-0.399,3.968,0.104,5.949-0.204
		c4.431-1.071,9.144,0.394,13.542-1.078c2.077-0.293,4.164-0.469,6.264-0.446c2.723,0.395,5.508,0.603,8.245,0.194
		c2.34-0.301,4.699,0.328,7.022-0.225c0.956,0.488,2.015,0.034,3.024,0.006c3.001-0.229,6.045-0.257,9.013,0.352
		c2.098-0.298,4.263,0.111,6.32-0.511c2.37,0.016,4.737-0.062,7.103-0.193c1.096-0.122,1.988,0.628,3.055,0.682
		c1.182,0.743,0.425,2.174,0.441,3.285c-0.968,0.128-1.945,0.078-2.888-0.159c-0.755,0.732-1.812,0.601-2.767,0.616
		c-1.809,0.733-3.744,0.456-5.635,0.393c-2.446,0.281-4.95,0.413-7.375-0.1c-0.939-0.217-1.862,0.097-2.762,0.332
		c-0.69-0.097-1.389-0.104-2.048,0.141c-1.679-0.086-3.399-0.646-5.028,0.054c-1.595-0.115-3.193-0.197-4.757,0.203
		c-2.184,0.052-4.387-0.037-6.548-0.371c-2.359-0.146-4.67,0.85-7.032,0.52c-1.229-0.039-2.453-0.433-3.676-0.177
		c-1.669-0.084-3.859-0.86-5.168,0.488l0.067-0.877c-1.164,0.303-2.363,0.418-3.561,0.485c-0.145,0.054-0.438,0.167-0.582,0.22
		c-2.003-0.063-4.017-0.054-5.986,0.337c-2.463,0.125-4.944,0.145-7.39-0.246c-0.562-0.149-1.045,0.233-1.541,0.427
		c-2.115-0.213-4.192,0.358-6.301,0.205c-1.478,0.405-3.023,0.111-4.529,0.062l0.025,0.271c-3.444-0.55-6.963-0.398-10.409,0.073
		c-3.641,0.637-7.349,0.832-11.031,0.614c-1.602,0.448-3.268-0.021-4.861,0.444c-1.458-0.448-2.999-0.381-4.475-0.746
		c-0.409,0.122-0.797,0.392-1.243,0.339c-1.59-0.174-3.273,0.1-4.751-0.646c0.047-0.595,0.09-1.191,0.134-1.78
		c0.889-0.375,1.696-0.902,2.538-1.364c-0.446-0.104-0.894-0.203-1.342-0.296c-0.276,0.325-0.547,0.65-0.82,0.979
		c-0.783,0.321-1.446,0.846-2.118,1.348c-0.484,0.362-0.922-0.277-1.297-0.505c-0.122-1.096-0.23-2.193-0.289-3.295
		c0.458-3.345,0.97-6.692,1.057-10.072c0.224-1.919,0.551-3.85,0.422-5.788c0.292-2.072,0.421-4.155,0.54-6.242
		c-0.101-2.422,0.102-4.836,0.258-7.249c0.292-1.683,0.571-3.375,0.647-5.079c-0.054-2.336,0.727-4.612,0.576-6.95
		c0.219-3.232,0.04-6.524,0.809-9.695c0.467-2.151,0.4-4.419,1.131-6.502c0.32-1.792,0.628-3.586,1.125-5.337
		c0.011-2.074,0.754-4.018,1.101-6.037c-0.036-1.205,0.515-2.292,0.768-3.44c0.226-0.926,0.271-1.921,0.81-2.737
		C10.592,28.096,10.59,27.774,10.587,27.457z"/>
	<path fill="#F9F9F9" d="M174.224,49.999c2.206,0.296,4.254,1.28,6.448,1.624c0.161-0.149,0.483-0.441,0.644-0.585
		c-0.049,0.219-0.153,0.653-0.203,0.874c2.143,0.184,3.769,1.727,5.786,2.309c1.701,0.561,3.147,1.653,4.784,2.361
		c1.882,1.243,3.813,2.474,5.972,3.191c1.793,1.051,3.976,1.233,5.987,0.84c0.25-0.672,0.547-1.319,0.91-1.936
		c0.545,0.434,1.079,0.891,1.615,1.345c0.633-1.038,0.846-2.348,1.779-3.183c0.552,0.361,1.074,0.775,1.604,1.172
		c0.125-0.755,0.238-1.514,0.376-2.264c0.374,0.02,0.749,0.046,1.125,0.071c0.092,1.415-0.806,2.924-0.08,4.251
		c0.307,0.633,0.325,1.343,0.422,2.028c-0.369,0.234-0.737,0.461-1.104,0.691c-0.681-0.7-1.437-1.451-1.487-2.493
		c-0.386-0.394-0.772-0.787-1.162-1.173c-0.056,0.437-0.105,0.876-0.15,1.314c0.35,0.944,0.588,1.97,0.3,2.961
		c-0.677,0.867-1.8,0.242-2.691,0.235c-0.115-0.215-0.348-0.643-0.463-0.854c-1.237-0.434-2.467,0.141-3.706,0.227
		c-1.567-0.134-3.161-0.45-4.541-1.229c-1.801-0.735-3.612-1.48-5.22-2.594c-1.523-1.095-3.264-1.81-4.892-2.724
		c-1.609-0.212-2.959-1.142-4.438-1.727c-3.343-1.227-6.795-2.586-10.435-2.127c-0.464-0.365-0.928-0.747-1.384-1.122
		C171.047,50.218,172.824,50.508,174.224,49.999z"/>
	<path fill="#F9F9F9" d="M158.574,57.693c0.314-1.304,0.483-2.825,1.836-3.488c0.104,0.237,0.309,0.712,0.413,0.948
		c-0.114,0.595-0.251,1.186-0.373,1.781c0.695,0.93,1.354,1.889,2.132,2.759c1.338,1.736,3.35,2.755,5.479,3.145
		c0.313,0.056,0.943,0.163,1.256,0.214c3.053,0.948,6.288,2,9.528,1.677c2.158,0.42,4.362,0.22,6.534,0.509
		c0.539,0.063,1.069-0.078,1.595-0.2c0.918,0.48,1.974,0.619,2.845-0.058c0.668,0.085,1.336,0.147,2.013,0.198
		c-0.01-0.157-0.024-0.477-0.033-0.637c2.729,0.384,5.359-0.86,8.048-0.822c0.64-0.025,1.265-0.166,1.802-0.537
		c0.805-0.227,1.633-0.334,2.457-0.107c0.02,0.358,0.065,1.076,0.085,1.435c-0.99,0.319-1.948,0.717-2.926,1.062
		c-5.91,0.519-11.748,2.2-17.734,1.665c-3.588-0.382-7.298,0.247-10.777-0.953c-2.866-1.024-6.036-1.046-8.721-2.592
		c-1.386-1.17-2.99-2.081-4.2-3.441c-0.277-0.335-0.555-0.664-0.835-0.988l0.231-0.457c-0.486-0.012-0.969-0.005-1.449,0.022
		c0.41-0.053,0.66-0.268,0.752-0.65c-0.192-0.112-0.57-0.341-0.762-0.454c-0.032-0.168-0.095-0.502-0.126-0.667
		C157.874,57.217,158.343,57.532,158.574,57.693z"/>
	<path fill="#F9F9F9" d="M172.713,58.613C172.879,58.855,172.879,58.855,172.713,58.613z"/>
	<path fill="#F9F9F9" d="M149.006,80.407c1.502-1.386,2.786-2.98,4.048-4.58c0.615,0.101,1.232,0.215,1.848,0.343
		c-0.599,1.694-2.046,2.86-2.696,4.521c-0.608,1.533-2.094,2.492-2.706,4.024c-1.001,1.751-2.505,3.156-3.959,4.536
		c-1.385,2.176-3.176,4.068-4.833,6.042c-3.857,2.839-5.669,7.718-9.667,10.421c-0.355-0.088-1.069-0.267-1.423-0.354
		c-0.022-0.965-0.119-1.928-0.083-2.895c0.343-1.009,0.791-2.005,1.483-2.823c0.693-0.627,1.474-1.159,2.071-1.885
		c1.895-1.182,3.008-3.141,4.525-4.718c1.485-1.805,3.353-3.237,5.072-4.806C144.921,85.731,146.842,82.966,149.006,80.407z"/>
</g>
<text transform="matrix(1 0.0098 -0.0098 1 42.6167 77.71)" fill="#F9F9F9" font-family="'Charter-Bold'" font-size="26">Pledge</text>
<g>
	
		<text transform="matrix(0.9997 0.0224 -0.0224 0.9997 23.2031 47.623)" fill="#F9F9F9" font-family="'Charter-Bold'" font-size="16">Anti-Eviction</text>
</g>
</svg>
